<svg xmlns="http://www.w3.org/2000/svg" width="518" height="518" viewBox="0 0 518 518">
<rect width="518" height="518" fill="#e8dfc0"/>
<rect x="56" y="56" width="14" height="14" fill="#1e0e08"/>
<rect x="70" y="56" width="14" height="14" fill="#1e0e08"/>
<rect x="84" y="56" width="14" height="14" fill="#1e0e08"/>
<rect x="98" y="56" width="14" height="14" fill="#1e0e08"/>
<rect x="112" y="56" width="14" height="14" fill="#1e0e08"/>
<rect x="126" y="56" width="14" height="14" fill="#1e0e08"/>
<rect x="140" y="56" width="14" height="14" fill="#1e0e08"/>
<rect x="196" y="56" width="14" height="14" fill="#1e0e08"/>
<rect x="210" y="56" width="14" height="14" fill="#1e0e08"/>
<rect x="238" y="56" width="14" height="14" fill="#1e0e08"/>
<rect x="280" y="56" width="14" height="14" fill="#1e0e08"/>
<rect x="294" y="56" width="14" height="14" fill="#1e0e08"/>
<rect x="308" y="56" width="14" height="14" fill="#1e0e08"/>
<rect x="322" y="56" width="14" height="14" fill="#1e0e08"/>
<rect x="364" y="56" width="14" height="14" fill="#1e0e08"/>
<rect x="378" y="56" width="14" height="14" fill="#1e0e08"/>
<rect x="392" y="56" width="14" height="14" fill="#1e0e08"/>
<rect x="406" y="56" width="14" height="14" fill="#1e0e08"/>
<rect x="420" y="56" width="14" height="14" fill="#1e0e08"/>
<rect x="434" y="56" width="14" height="14" fill="#1e0e08"/>
<rect x="448" y="56" width="14" height="14" fill="#1e0e08"/>
<rect x="56" y="70" width="14" height="14" fill="#1e0e08"/>
<rect x="140" y="70" width="14" height="14" fill="#1e0e08"/>
<rect x="168" y="70" width="14" height="14" fill="#1e0e08"/>
<rect x="196" y="70" width="14" height="14" fill="#1e0e08"/>
<rect x="224" y="70" width="14" height="14" fill="#1e0e08"/>
<rect x="252" y="70" width="14" height="14" fill="#1e0e08"/>
<rect x="266" y="70" width="14" height="14" fill="#1e0e08"/>
<rect x="280" y="70" width="14" height="14" fill="#1e0e08"/>
<rect x="308" y="70" width="14" height="14" fill="#1e0e08"/>
<rect x="322" y="70" width="14" height="14" fill="#1e0e08"/>
<rect x="336" y="70" width="14" height="14" fill="#1e0e08"/>
<rect x="364" y="70" width="14" height="14" fill="#1e0e08"/>
<rect x="448" y="70" width="14" height="14" fill="#1e0e08"/>
<rect x="56" y="84" width="14" height="14" fill="#1e0e08"/>
<rect x="84" y="84" width="14" height="14" fill="#1e0e08"/>
<rect x="98" y="84" width="14" height="14" fill="#1e0e08"/>
<rect x="112" y="84" width="14" height="14" fill="#1e0e08"/>
<rect x="140" y="84" width="14" height="14" fill="#1e0e08"/>
<rect x="182" y="84" width="14" height="14" fill="#1e0e08"/>
<rect x="196" y="84" width="14" height="14" fill="#1e0e08"/>
<rect x="210" y="84" width="14" height="14" fill="#1e0e08"/>
<rect x="224" y="84" width="14" height="14" fill="#1e0e08"/>
<rect x="238" y="84" width="14" height="14" fill="#1e0e08"/>
<rect x="252" y="84" width="14" height="14" fill="#1e0e08"/>
<rect x="280" y="84" width="14" height="14" fill="#1e0e08"/>
<rect x="308" y="84" width="14" height="14" fill="#1e0e08"/>
<rect x="336" y="84" width="14" height="14" fill="#1e0e08"/>
<rect x="364" y="84" width="14" height="14" fill="#1e0e08"/>
<rect x="392" y="84" width="14" height="14" fill="#1e0e08"/>
<rect x="406" y="84" width="14" height="14" fill="#1e0e08"/>
<rect x="420" y="84" width="14" height="14" fill="#1e0e08"/>
<rect x="448" y="84" width="14" height="14" fill="#1e0e08"/>
<rect x="56" y="98" width="14" height="14" fill="#1e0e08"/>
<rect x="84" y="98" width="14" height="14" fill="#1e0e08"/>
<rect x="98" y="98" width="14" height="14" fill="#1e0e08"/>
<rect x="112" y="98" width="14" height="14" fill="#1e0e08"/>
<rect x="140" y="98" width="14" height="14" fill="#1e0e08"/>
<rect x="182" y="98" width="14" height="14" fill="#1e0e08"/>
<rect x="210" y="98" width="14" height="14" fill="#1e0e08"/>
<rect x="238" y="98" width="14" height="14" fill="#1e0e08"/>
<rect x="252" y="98" width="14" height="14" fill="#1e0e08"/>
<rect x="266" y="98" width="14" height="14" fill="#1e0e08"/>
<rect x="308" y="98" width="14" height="14" fill="#1e0e08"/>
<rect x="364" y="98" width="14" height="14" fill="#1e0e08"/>
<rect x="392" y="98" width="14" height="14" fill="#1e0e08"/>
<rect x="406" y="98" width="14" height="14" fill="#1e0e08"/>
<rect x="420" y="98" width="14" height="14" fill="#1e0e08"/>
<rect x="448" y="98" width="14" height="14" fill="#1e0e08"/>
<rect x="56" y="112" width="14" height="14" fill="#1e0e08"/>
<rect x="84" y="112" width="14" height="14" fill="#1e0e08"/>
<rect x="98" y="112" width="14" height="14" fill="#1e0e08"/>
<rect x="112" y="112" width="14" height="14" fill="#1e0e08"/>
<rect x="140" y="112" width="14" height="14" fill="#1e0e08"/>
<rect x="168" y="112" width="14" height="14" fill="#1e0e08"/>
<rect x="182" y="112" width="14" height="14" fill="#1e0e08"/>
<rect x="210" y="112" width="14" height="14" fill="#1e0e08"/>
<rect x="224" y="112" width="14" height="14" fill="#1e0e08"/>
<rect x="252" y="112" width="14" height="14" fill="#1e0e08"/>
<rect x="308" y="112" width="14" height="14" fill="#1e0e08"/>
<rect x="322" y="112" width="14" height="14" fill="#1e0e08"/>
<rect x="364" y="112" width="14" height="14" fill="#1e0e08"/>
<rect x="392" y="112" width="14" height="14" fill="#1e0e08"/>
<rect x="406" y="112" width="14" height="14" fill="#1e0e08"/>
<rect x="420" y="112" width="14" height="14" fill="#1e0e08"/>
<rect x="448" y="112" width="14" height="14" fill="#1e0e08"/>
<rect x="56" y="126" width="14" height="14" fill="#1e0e08"/>
<rect x="140" y="126" width="14" height="14" fill="#1e0e08"/>
<rect x="196" y="126" width="14" height="14" fill="#1e0e08"/>
<rect x="210" y="126" width="14" height="14" fill="#1e0e08"/>
<rect x="224" y="126" width="14" height="14" fill="#1e0e08"/>
<rect x="238" y="126" width="14" height="14" fill="#1e0e08"/>
<rect x="308" y="126" width="14" height="14" fill="#1e0e08"/>
<rect x="322" y="126" width="14" height="14" fill="#1e0e08"/>
<rect x="336" y="126" width="14" height="14" fill="#1e0e08"/>
<rect x="364" y="126" width="14" height="14" fill="#1e0e08"/>
<rect x="448" y="126" width="14" height="14" fill="#1e0e08"/>
<rect x="56" y="140" width="14" height="14" fill="#1e0e08"/>
<rect x="70" y="140" width="14" height="14" fill="#1e0e08"/>
<rect x="84" y="140" width="14" height="14" fill="#1e0e08"/>
<rect x="98" y="140" width="14" height="14" fill="#1e0e08"/>
<rect x="112" y="140" width="14" height="14" fill="#1e0e08"/>
<rect x="126" y="140" width="14" height="14" fill="#1e0e08"/>
<rect x="140" y="140" width="14" height="14" fill="#1e0e08"/>
<rect x="168" y="140" width="14" height="14" fill="#1e0e08"/>
<rect x="196" y="140" width="14" height="14" fill="#1e0e08"/>
<rect x="224" y="140" width="14" height="14" fill="#1e0e08"/>
<rect x="252" y="140" width="14" height="14" fill="#1e0e08"/>
<rect x="280" y="140" width="14" height="14" fill="#1e0e08"/>
<rect x="308" y="140" width="14" height="14" fill="#1e0e08"/>
<rect x="336" y="140" width="14" height="14" fill="#1e0e08"/>
<rect x="364" y="140" width="14" height="14" fill="#1e0e08"/>
<rect x="378" y="140" width="14" height="14" fill="#1e0e08"/>
<rect x="392" y="140" width="14" height="14" fill="#1e0e08"/>
<rect x="406" y="140" width="14" height="14" fill="#1e0e08"/>
<rect x="420" y="140" width="14" height="14" fill="#1e0e08"/>
<rect x="434" y="140" width="14" height="14" fill="#1e0e08"/>
<rect x="448" y="140" width="14" height="14" fill="#1e0e08"/>
<rect x="210" y="154" width="14" height="14" fill="#1e0e08"/>
<rect x="238" y="154" width="14" height="14" fill="#1e0e08"/>
<rect x="252" y="154" width="14" height="14" fill="#1e0e08"/>
<rect x="280" y="154" width="14" height="14" fill="#1e0e08"/>
<rect x="294" y="154" width="14" height="14" fill="#1e0e08"/>
<rect x="308" y="154" width="14" height="14" fill="#1e0e08"/>
<rect x="336" y="154" width="14" height="14" fill="#1e0e08"/>
<rect x="56" y="168" width="14" height="14" fill="#1e0e08"/>
<rect x="84" y="168" width="14" height="14" fill="#1e0e08"/>
<rect x="112" y="168" width="14" height="14" fill="#1e0e08"/>
<rect x="140" y="168" width="14" height="14" fill="#1e0e08"/>
<rect x="182" y="168" width="14" height="14" fill="#1e0e08"/>
<rect x="252" y="168" width="14" height="14" fill="#1e0e08"/>
<rect x="266" y="168" width="14" height="14" fill="#1e0e08"/>
<rect x="294" y="168" width="14" height="14" fill="#1e0e08"/>
<rect x="308" y="168" width="14" height="14" fill="#1e0e08"/>
<rect x="392" y="168" width="14" height="14" fill="#1e0e08"/>
<rect x="434" y="168" width="14" height="14" fill="#1e0e08"/>
<rect x="56" y="182" width="14" height="14" fill="#1e0e08"/>
<rect x="84" y="182" width="14" height="14" fill="#1e0e08"/>
<rect x="98" y="182" width="14" height="14" fill="#1e0e08"/>
<rect x="112" y="182" width="14" height="14" fill="#1e0e08"/>
<rect x="126" y="182" width="14" height="14" fill="#1e0e08"/>
<rect x="182" y="182" width="14" height="14" fill="#1e0e08"/>
<rect x="196" y="182" width="14" height="14" fill="#1e0e08"/>
<rect x="224" y="182" width="14" height="14" fill="#1e0e08"/>
<rect x="252" y="182" width="14" height="14" fill="#1e0e08"/>
<rect x="266" y="182" width="14" height="14" fill="#1e0e08"/>
<rect x="336" y="182" width="14" height="14" fill="#1e0e08"/>
<rect x="350" y="182" width="14" height="14" fill="#1e0e08"/>
<rect x="364" y="182" width="14" height="14" fill="#1e0e08"/>
<rect x="406" y="182" width="14" height="14" fill="#1e0e08"/>
<rect x="448" y="182" width="14" height="14" fill="#1e0e08"/>
<rect x="56" y="196" width="14" height="14" fill="#1e0e08"/>
<rect x="70" y="196" width="14" height="14" fill="#1e0e08"/>
<rect x="98" y="196" width="14" height="14" fill="#1e0e08"/>
<rect x="112" y="196" width="14" height="14" fill="#1e0e08"/>
<rect x="126" y="196" width="14" height="14" fill="#1e0e08"/>
<rect x="140" y="196" width="14" height="14" fill="#1e0e08"/>
<rect x="154" y="196" width="14" height="14" fill="#1e0e08"/>
<rect x="182" y="196" width="14" height="14" fill="#1e0e08"/>
<rect x="196" y="196" width="14" height="14" fill="#1e0e08"/>
<rect x="210" y="196" width="14" height="14" fill="#1e0e08"/>
<rect x="224" y="196" width="14" height="14" fill="#1e0e08"/>
<rect x="238" y="196" width="14" height="14" fill="#1e0e08"/>
<rect x="294" y="196" width="14" height="14" fill="#1e0e08"/>
<rect x="420" y="196" width="14" height="14" fill="#1e0e08"/>
<rect x="434" y="196" width="14" height="14" fill="#1e0e08"/>
<rect x="448" y="196" width="14" height="14" fill="#1e0e08"/>
<rect x="56" y="210" width="14" height="14" fill="#1e0e08"/>
<rect x="126" y="210" width="14" height="14" fill="#1e0e08"/>
<rect x="154" y="210" width="14" height="14" fill="#1e0e08"/>
<rect x="168" y="210" width="14" height="14" fill="#1e0e08"/>
<rect x="210" y="210" width="14" height="14" fill="#1e0e08"/>
<rect x="266" y="210" width="14" height="14" fill="#1e0e08"/>
<rect x="294" y="210" width="14" height="14" fill="#1e0e08"/>
<rect x="322" y="210" width="14" height="14" fill="#1e0e08"/>
<rect x="336" y="210" width="14" height="14" fill="#1e0e08"/>
<rect x="364" y="210" width="14" height="14" fill="#1e0e08"/>
<rect x="392" y="210" width="14" height="14" fill="#1e0e08"/>
<rect x="434" y="210" width="14" height="14" fill="#1e0e08"/>
<rect x="56" y="224" width="14" height="14" fill="#1e0e08"/>
<rect x="70" y="224" width="14" height="14" fill="#1e0e08"/>
<rect x="84" y="224" width="14" height="14" fill="#1e0e08"/>
<rect x="98" y="224" width="14" height="14" fill="#1e0e08"/>
<rect x="112" y="224" width="14" height="14" fill="#1e0e08"/>
<rect x="140" y="224" width="14" height="14" fill="#1e0e08"/>
<rect x="154" y="224" width="14" height="14" fill="#1e0e08"/>
<rect x="182" y="224" width="14" height="14" fill="#1e0e08"/>
<rect x="196" y="224" width="14" height="14" fill="#1e0e08"/>
<rect x="210" y="224" width="14" height="14" fill="#1e0e08"/>
<rect x="280" y="224" width="14" height="14" fill="#1e0e08"/>
<rect x="294" y="224" width="14" height="14" fill="#1e0e08"/>
<rect x="336" y="224" width="14" height="14" fill="#1e0e08"/>
<rect x="350" y="224" width="14" height="14" fill="#1e0e08"/>
<rect x="364" y="224" width="14" height="14" fill="#1e0e08"/>
<rect x="406" y="224" width="14" height="14" fill="#1e0e08"/>
<rect x="434" y="224" width="14" height="14" fill="#1e0e08"/>
<rect x="448" y="224" width="14" height="14" fill="#1e0e08"/>
<rect x="98" y="238" width="14" height="14" fill="#1e0e08"/>
<rect x="126" y="238" width="14" height="14" fill="#1e0e08"/>
<rect x="154" y="238" width="14" height="14" fill="#1e0e08"/>
<rect x="238" y="238" width="14" height="14" fill="#1e0e08"/>
<rect x="266" y="238" width="14" height="14" fill="#1e0e08"/>
<rect x="280" y="238" width="14" height="14" fill="#1e0e08"/>
<rect x="294" y="238" width="14" height="14" fill="#1e0e08"/>
<rect x="336" y="238" width="14" height="14" fill="#1e0e08"/>
<rect x="350" y="238" width="14" height="14" fill="#1e0e08"/>
<rect x="364" y="238" width="14" height="14" fill="#1e0e08"/>
<rect x="378" y="238" width="14" height="14" fill="#1e0e08"/>
<rect x="406" y="238" width="14" height="14" fill="#1e0e08"/>
<rect x="448" y="238" width="14" height="14" fill="#1e0e08"/>
<rect x="56" y="252" width="14" height="14" fill="#1e0e08"/>
<rect x="98" y="252" width="14" height="14" fill="#1e0e08"/>
<rect x="112" y="252" width="14" height="14" fill="#1e0e08"/>
<rect x="140" y="252" width="14" height="14" fill="#1e0e08"/>
<rect x="154" y="252" width="14" height="14" fill="#1e0e08"/>
<rect x="168" y="252" width="14" height="14" fill="#1e0e08"/>
<rect x="196" y="252" width="14" height="14" fill="#1e0e08"/>
<rect x="224" y="252" width="14" height="14" fill="#1e0e08"/>
<rect x="252" y="252" width="14" height="14" fill="#1e0e08"/>
<rect x="266" y="252" width="14" height="14" fill="#1e0e08"/>
<rect x="280" y="252" width="14" height="14" fill="#1e0e08"/>
<rect x="294" y="252" width="14" height="14" fill="#1e0e08"/>
<rect x="308" y="252" width="14" height="14" fill="#1e0e08"/>
<rect x="336" y="252" width="14" height="14" fill="#1e0e08"/>
<rect x="378" y="252" width="14" height="14" fill="#1e0e08"/>
<rect x="406" y="252" width="14" height="14" fill="#1e0e08"/>
<rect x="434" y="252" width="14" height="14" fill="#1e0e08"/>
<rect x="448" y="252" width="14" height="14" fill="#1e0e08"/>
<rect x="56" y="266" width="14" height="14" fill="#1e0e08"/>
<rect x="84" y="266" width="14" height="14" fill="#1e0e08"/>
<rect x="98" y="266" width="14" height="14" fill="#1e0e08"/>
<rect x="112" y="266" width="14" height="14" fill="#1e0e08"/>
<rect x="168" y="266" width="14" height="14" fill="#1e0e08"/>
<rect x="182" y="266" width="14" height="14" fill="#1e0e08"/>
<rect x="196" y="266" width="14" height="14" fill="#1e0e08"/>
<rect x="210" y="266" width="14" height="14" fill="#1e0e08"/>
<rect x="238" y="266" width="14" height="14" fill="#1e0e08"/>
<rect x="252" y="266" width="14" height="14" fill="#1e0e08"/>
<rect x="280" y="266" width="14" height="14" fill="#1e0e08"/>
<rect x="294" y="266" width="14" height="14" fill="#1e0e08"/>
<rect x="308" y="266" width="14" height="14" fill="#1e0e08"/>
<rect x="336" y="266" width="14" height="14" fill="#1e0e08"/>
<rect x="406" y="266" width="14" height="14" fill="#1e0e08"/>
<rect x="434" y="266" width="14" height="14" fill="#1e0e08"/>
<rect x="56" y="280" width="14" height="14" fill="#1e0e08"/>
<rect x="70" y="280" width="14" height="14" fill="#1e0e08"/>
<rect x="98" y="280" width="14" height="14" fill="#1e0e08"/>
<rect x="112" y="280" width="14" height="14" fill="#1e0e08"/>
<rect x="126" y="280" width="14" height="14" fill="#1e0e08"/>
<rect x="140" y="280" width="14" height="14" fill="#1e0e08"/>
<rect x="154" y="280" width="14" height="14" fill="#1e0e08"/>
<rect x="182" y="280" width="14" height="14" fill="#1e0e08"/>
<rect x="224" y="280" width="14" height="14" fill="#1e0e08"/>
<rect x="252" y="280" width="14" height="14" fill="#1e0e08"/>
<rect x="266" y="280" width="14" height="14" fill="#1e0e08"/>
<rect x="294" y="280" width="14" height="14" fill="#1e0e08"/>
<rect x="336" y="280" width="14" height="14" fill="#1e0e08"/>
<rect x="350" y="280" width="14" height="14" fill="#1e0e08"/>
<rect x="364" y="280" width="14" height="14" fill="#1e0e08"/>
<rect x="378" y="280" width="14" height="14" fill="#1e0e08"/>
<rect x="406" y="280" width="14" height="14" fill="#1e0e08"/>
<rect x="434" y="280" width="14" height="14" fill="#1e0e08"/>
<rect x="448" y="280" width="14" height="14" fill="#1e0e08"/>
<rect x="98" y="294" width="14" height="14" fill="#1e0e08"/>
<rect x="126" y="294" width="14" height="14" fill="#1e0e08"/>
<rect x="154" y="294" width="14" height="14" fill="#1e0e08"/>
<rect x="182" y="294" width="14" height="14" fill="#1e0e08"/>
<rect x="196" y="294" width="14" height="14" fill="#1e0e08"/>
<rect x="224" y="294" width="14" height="14" fill="#1e0e08"/>
<rect x="252" y="294" width="14" height="14" fill="#1e0e08"/>
<rect x="266" y="294" width="14" height="14" fill="#1e0e08"/>
<rect x="336" y="294" width="14" height="14" fill="#1e0e08"/>
<rect x="350" y="294" width="14" height="14" fill="#1e0e08"/>
<rect x="364" y="294" width="14" height="14" fill="#1e0e08"/>
<rect x="406" y="294" width="14" height="14" fill="#1e0e08"/>
<rect x="420" y="294" width="14" height="14" fill="#1e0e08"/>
<rect x="448" y="294" width="14" height="14" fill="#1e0e08"/>
<rect x="56" y="308" width="14" height="14" fill="#1e0e08"/>
<rect x="84" y="308" width="14" height="14" fill="#1e0e08"/>
<rect x="112" y="308" width="14" height="14" fill="#1e0e08"/>
<rect x="140" y="308" width="14" height="14" fill="#1e0e08"/>
<rect x="182" y="308" width="14" height="14" fill="#1e0e08"/>
<rect x="210" y="308" width="14" height="14" fill="#1e0e08"/>
<rect x="224" y="308" width="14" height="14" fill="#1e0e08"/>
<rect x="238" y="308" width="14" height="14" fill="#1e0e08"/>
<rect x="294" y="308" width="14" height="14" fill="#1e0e08"/>
<rect x="350" y="308" width="14" height="14" fill="#1e0e08"/>
<rect x="378" y="308" width="14" height="14" fill="#1e0e08"/>
<rect x="434" y="308" width="14" height="14" fill="#1e0e08"/>
<rect x="448" y="308" width="14" height="14" fill="#1e0e08"/>
<rect x="70" y="322" width="14" height="14" fill="#1e0e08"/>
<rect x="84" y="322" width="14" height="14" fill="#1e0e08"/>
<rect x="98" y="322" width="14" height="14" fill="#1e0e08"/>
<rect x="112" y="322" width="14" height="14" fill="#1e0e08"/>
<rect x="126" y="322" width="14" height="14" fill="#1e0e08"/>
<rect x="154" y="322" width="14" height="14" fill="#1e0e08"/>
<rect x="182" y="322" width="14" height="14" fill="#1e0e08"/>
<rect x="196" y="322" width="14" height="14" fill="#1e0e08"/>
<rect x="210" y="322" width="14" height="14" fill="#1e0e08"/>
<rect x="266" y="322" width="14" height="14" fill="#1e0e08"/>
<rect x="294" y="322" width="14" height="14" fill="#1e0e08"/>
<rect x="308" y="322" width="14" height="14" fill="#1e0e08"/>
<rect x="336" y="322" width="14" height="14" fill="#1e0e08"/>
<rect x="350" y="322" width="14" height="14" fill="#1e0e08"/>
<rect x="364" y="322" width="14" height="14" fill="#1e0e08"/>
<rect x="406" y="322" width="14" height="14" fill="#1e0e08"/>
<rect x="434" y="322" width="14" height="14" fill="#1e0e08"/>
<rect x="56" y="336" width="14" height="14" fill="#1e0e08"/>
<rect x="98" y="336" width="14" height="14" fill="#1e0e08"/>
<rect x="112" y="336" width="14" height="14" fill="#1e0e08"/>
<rect x="126" y="336" width="14" height="14" fill="#1e0e08"/>
<rect x="140" y="336" width="14" height="14" fill="#1e0e08"/>
<rect x="154" y="336" width="14" height="14" fill="#1e0e08"/>
<rect x="168" y="336" width="14" height="14" fill="#1e0e08"/>
<rect x="224" y="336" width="14" height="14" fill="#1e0e08"/>
<rect x="280" y="336" width="14" height="14" fill="#1e0e08"/>
<rect x="294" y="336" width="14" height="14" fill="#1e0e08"/>
<rect x="322" y="336" width="14" height="14" fill="#1e0e08"/>
<rect x="336" y="336" width="14" height="14" fill="#1e0e08"/>
<rect x="350" y="336" width="14" height="14" fill="#1e0e08"/>
<rect x="364" y="336" width="14" height="14" fill="#1e0e08"/>
<rect x="378" y="336" width="14" height="14" fill="#1e0e08"/>
<rect x="392" y="336" width="14" height="14" fill="#1e0e08"/>
<rect x="168" y="350" width="14" height="14" fill="#1e0e08"/>
<rect x="182" y="350" width="14" height="14" fill="#1e0e08"/>
<rect x="196" y="350" width="14" height="14" fill="#1e0e08"/>
<rect x="238" y="350" width="14" height="14" fill="#1e0e08"/>
<rect x="266" y="350" width="14" height="14" fill="#1e0e08"/>
<rect x="280" y="350" width="14" height="14" fill="#1e0e08"/>
<rect x="322" y="350" width="14" height="14" fill="#1e0e08"/>
<rect x="336" y="350" width="14" height="14" fill="#1e0e08"/>
<rect x="392" y="350" width="14" height="14" fill="#1e0e08"/>
<rect x="420" y="350" width="14" height="14" fill="#1e0e08"/>
<rect x="434" y="350" width="14" height="14" fill="#1e0e08"/>
<rect x="448" y="350" width="14" height="14" fill="#1e0e08"/>
<rect x="56" y="364" width="14" height="14" fill="#1e0e08"/>
<rect x="70" y="364" width="14" height="14" fill="#1e0e08"/>
<rect x="84" y="364" width="14" height="14" fill="#1e0e08"/>
<rect x="98" y="364" width="14" height="14" fill="#1e0e08"/>
<rect x="112" y="364" width="14" height="14" fill="#1e0e08"/>
<rect x="126" y="364" width="14" height="14" fill="#1e0e08"/>
<rect x="140" y="364" width="14" height="14" fill="#1e0e08"/>
<rect x="182" y="364" width="14" height="14" fill="#1e0e08"/>
<rect x="196" y="364" width="14" height="14" fill="#1e0e08"/>
<rect x="210" y="364" width="14" height="14" fill="#1e0e08"/>
<rect x="252" y="364" width="14" height="14" fill="#1e0e08"/>
<rect x="266" y="364" width="14" height="14" fill="#1e0e08"/>
<rect x="280" y="364" width="14" height="14" fill="#1e0e08"/>
<rect x="322" y="364" width="14" height="14" fill="#1e0e08"/>
<rect x="336" y="364" width="14" height="14" fill="#1e0e08"/>
<rect x="364" y="364" width="14" height="14" fill="#1e0e08"/>
<rect x="392" y="364" width="14" height="14" fill="#1e0e08"/>
<rect x="406" y="364" width="14" height="14" fill="#1e0e08"/>
<rect x="434" y="364" width="14" height="14" fill="#1e0e08"/>
<rect x="448" y="364" width="14" height="14" fill="#1e0e08"/>
<rect x="56" y="378" width="14" height="14" fill="#1e0e08"/>
<rect x="140" y="378" width="14" height="14" fill="#1e0e08"/>
<rect x="238" y="378" width="14" height="14" fill="#1e0e08"/>
<rect x="252" y="378" width="14" height="14" fill="#1e0e08"/>
<rect x="280" y="378" width="14" height="14" fill="#1e0e08"/>
<rect x="294" y="378" width="14" height="14" fill="#1e0e08"/>
<rect x="308" y="378" width="14" height="14" fill="#1e0e08"/>
<rect x="336" y="378" width="14" height="14" fill="#1e0e08"/>
<rect x="392" y="378" width="14" height="14" fill="#1e0e08"/>
<rect x="406" y="378" width="14" height="14" fill="#1e0e08"/>
<rect x="434" y="378" width="14" height="14" fill="#1e0e08"/>
<rect x="56" y="392" width="14" height="14" fill="#1e0e08"/>
<rect x="84" y="392" width="14" height="14" fill="#1e0e08"/>
<rect x="98" y="392" width="14" height="14" fill="#1e0e08"/>
<rect x="112" y="392" width="14" height="14" fill="#1e0e08"/>
<rect x="140" y="392" width="14" height="14" fill="#1e0e08"/>
<rect x="168" y="392" width="14" height="14" fill="#1e0e08"/>
<rect x="182" y="392" width="14" height="14" fill="#1e0e08"/>
<rect x="252" y="392" width="14" height="14" fill="#1e0e08"/>
<rect x="266" y="392" width="14" height="14" fill="#1e0e08"/>
<rect x="308" y="392" width="14" height="14" fill="#1e0e08"/>
<rect x="336" y="392" width="14" height="14" fill="#1e0e08"/>
<rect x="350" y="392" width="14" height="14" fill="#1e0e08"/>
<rect x="364" y="392" width="14" height="14" fill="#1e0e08"/>
<rect x="378" y="392" width="14" height="14" fill="#1e0e08"/>
<rect x="392" y="392" width="14" height="14" fill="#1e0e08"/>
<rect x="434" y="392" width="14" height="14" fill="#1e0e08"/>
<rect x="56" y="406" width="14" height="14" fill="#1e0e08"/>
<rect x="84" y="406" width="14" height="14" fill="#1e0e08"/>
<rect x="98" y="406" width="14" height="14" fill="#1e0e08"/>
<rect x="112" y="406" width="14" height="14" fill="#1e0e08"/>
<rect x="140" y="406" width="14" height="14" fill="#1e0e08"/>
<rect x="182" y="406" width="14" height="14" fill="#1e0e08"/>
<rect x="238" y="406" width="14" height="14" fill="#1e0e08"/>
<rect x="252" y="406" width="14" height="14" fill="#1e0e08"/>
<rect x="266" y="406" width="14" height="14" fill="#1e0e08"/>
<rect x="336" y="406" width="14" height="14" fill="#1e0e08"/>
<rect x="392" y="406" width="14" height="14" fill="#1e0e08"/>
<rect x="420" y="406" width="14" height="14" fill="#1e0e08"/>
<rect x="56" y="420" width="14" height="14" fill="#1e0e08"/>
<rect x="84" y="420" width="14" height="14" fill="#1e0e08"/>
<rect x="98" y="420" width="14" height="14" fill="#1e0e08"/>
<rect x="112" y="420" width="14" height="14" fill="#1e0e08"/>
<rect x="140" y="420" width="14" height="14" fill="#1e0e08"/>
<rect x="168" y="420" width="14" height="14" fill="#1e0e08"/>
<rect x="196" y="420" width="14" height="14" fill="#1e0e08"/>
<rect x="224" y="420" width="14" height="14" fill="#1e0e08"/>
<rect x="238" y="420" width="14" height="14" fill="#1e0e08"/>
<rect x="252" y="420" width="14" height="14" fill="#1e0e08"/>
<rect x="294" y="420" width="14" height="14" fill="#1e0e08"/>
<rect x="336" y="420" width="14" height="14" fill="#1e0e08"/>
<rect x="378" y="420" width="14" height="14" fill="#1e0e08"/>
<rect x="392" y="420" width="14" height="14" fill="#1e0e08"/>
<rect x="406" y="420" width="14" height="14" fill="#1e0e08"/>
<rect x="448" y="420" width="14" height="14" fill="#1e0e08"/>
<rect x="56" y="434" width="14" height="14" fill="#1e0e08"/>
<rect x="140" y="434" width="14" height="14" fill="#1e0e08"/>
<rect x="196" y="434" width="14" height="14" fill="#1e0e08"/>
<rect x="210" y="434" width="14" height="14" fill="#1e0e08"/>
<rect x="238" y="434" width="14" height="14" fill="#1e0e08"/>
<rect x="266" y="434" width="14" height="14" fill="#1e0e08"/>
<rect x="336" y="434" width="14" height="14" fill="#1e0e08"/>
<rect x="392" y="434" width="14" height="14" fill="#1e0e08"/>
<rect x="434" y="434" width="14" height="14" fill="#1e0e08"/>
<rect x="56" y="448" width="14" height="14" fill="#1e0e08"/>
<rect x="70" y="448" width="14" height="14" fill="#1e0e08"/>
<rect x="84" y="448" width="14" height="14" fill="#1e0e08"/>
<rect x="98" y="448" width="14" height="14" fill="#1e0e08"/>
<rect x="112" y="448" width="14" height="14" fill="#1e0e08"/>
<rect x="126" y="448" width="14" height="14" fill="#1e0e08"/>
<rect x="140" y="448" width="14" height="14" fill="#1e0e08"/>
<rect x="168" y="448" width="14" height="14" fill="#1e0e08"/>
<rect x="196" y="448" width="14" height="14" fill="#1e0e08"/>
<rect x="238" y="448" width="14" height="14" fill="#1e0e08"/>
<rect x="280" y="448" width="14" height="14" fill="#1e0e08"/>
<rect x="322" y="448" width="14" height="14" fill="#1e0e08"/>
<rect x="336" y="448" width="14" height="14" fill="#1e0e08"/>
<rect x="350" y="448" width="14" height="14" fill="#1e0e08"/>
<rect x="378" y="448" width="14" height="14" fill="#1e0e08"/>
<rect x="392" y="448" width="14" height="14" fill="#1e0e08"/>
<rect x="406" y="448" width="14" height="14" fill="#1e0e08"/>
<rect x="434" y="448" width="14" height="14" fill="#1e0e08"/>
<rect x="448" y="448" width="14" height="14" fill="#1e0e08"/>
</svg>